<svg width="279" height="266" viewBox="0 0 279 266" fill="none" xmlns="http://www.w3.org/2000/svg">
<path d="M139.5 0C216.544 6.59729e-05 279 62.4563 279 139.5C279 195.01 246.576 242.945 199.636 265.405C200.288 258.995 200.898 251.766 201.438 243.616C202.343 238.544 202.434 228.898 201.619 224.641C201.302 223.056 199.943 218.164 198.584 213.771C194.01 199.007 193.648 192.757 196.909 182.748C198.721 177.133 198.721 177.133 200.17 179.442C202.751 183.473 206.193 186.598 212.715 190.9C219.915 195.656 220.867 196.697 222.633 201.996C224.173 206.57 225.033 207.838 228.248 210.329C233.23 214.179 236.265 214.949 241.201 213.59C244.688 212.684 246.908 211.371 249.263 208.835C251.572 206.389 252.75 204.124 252.75 202.268C252.75 201.677 251.345 194.069 249.579 185.375C247.858 176.725 245.73 165.72 244.824 161.01C243.103 151.952 241.155 143.665 239.706 139.498L238.846 137.007L240.114 133.792C241.428 130.486 242.786 123.965 242.786 120.885C242.786 118.62 242.061 116.854 241.155 116.854C240.701 116.855 237.531 118.711 234.045 120.975C230.558 123.239 227.026 125.322 226.12 125.549C225.079 125.866 223.131 125.821 220.323 125.504C209.862 124.281 198.222 125.685 187.308 129.534C177.661 132.976 168.151 139.272 160.497 147.333C155.062 153.039 151.077 158.836 144.872 169.841C138.305 181.48 131.694 189.542 125.263 193.663C121.775 195.882 115.616 197.829 110.996 198.146C107.147 198.418 106.694 197.966 110.091 197.241C110.951 197.06 113.442 196.154 115.616 195.203C126.983 190.312 137.535 179.85 143.105 167.984C146.547 160.648 147.998 155.167 149.266 145.113C150.67 133.791 152.3 127.904 155.198 123.33C159.229 116.99 164.075 114.589 172.815 114.589L176.5 115.5L175.5 112.5C174.368 109.285 173.177 108.022 169.871 107.434L167.924 107.116L167.29 103.946C166.973 102.18 165.841 99.1005 164.845 97.0625C163.441 94.1188 162.444 92.8055 160.18 90.7676C156.058 87.1445 154.564 86.2385 150.533 84.8799C141.521 81.8003 132.191 83.3851 125.126 89.1367C120.552 92.8503 118.469 95.9308 114.619 104.49C109.502 115.947 105.291 123.645 104.158 123.646C103.977 123.646 102.21 121.428 100.218 118.756C98.1798 116.084 95.2361 112.641 93.6963 111.102C88.1259 105.803 83.9138 103.72 67.7461 98.4209C49.042 92.2617 43.4709 89.0919 36.4512 80.623C34.8216 78.6313 33.1922 77.0016 32.874 77C32.5118 77 31.7414 77.8599 31.1074 78.9014C27.6203 84.8793 26.3516 89.0462 25.9893 95.7939C25.4911 105.939 28.3899 115.722 34.8662 125.504C41.2519 135.15 48.8602 140.449 63.8506 145.612C71.7308 148.33 75.581 150.412 79.2041 153.899C80.1049 154.8 80.8701 155.498 81.0605 155.582C76.6003 156.285 68.7717 155.868 46.9033 153.646L42.3389 153.177L42.2461 153.128C41.8238 152.924 41.9935 153.32 42.3389 154.126C44.6033 159.651 52.3476 167.939 57.7822 170.838C61.9032 173.012 67.4734 174.868 70.0098 174.913C71.142 174.913 72.0479 175.05 72.0479 175.186C72.0472 175.322 71.595 175.955 71.0068 176.589C70.4181 177.268 68.289 180.031 66.251 182.794C62.4469 187.957 60.545 191.489 60.0469 194.388C59.7751 195.792 59.3673 196.245 57.0576 197.604C54.7028 199.007 54.2044 199.143 52.71 198.78C49.6304 198.101 42.9731 198.328 39.3047 199.233C34.9117 200.366 33.0548 201.317 26.9863 205.619C24.1376 207.617 21.6673 209.252 19.4463 210.586C7.09311 189.768 6.6713e-05 165.463 0 139.5C0 62.4563 62.4563 0 139.5 0ZM227.841 160.014C229.969 159.742 231.047 160.557 231.5 160.512C232.179 160.466 233 160.83 233 164C233 167.079 233.14 166.716 232.415 167.124C230.921 167.894 229.97 167.667 227.298 165.72C225.305 164.361 224.58 163.501 224.263 162.232C223.991 161.328 223.856 160.559 223.9 160.512C223.946 160.466 225.712 160.24 227.841 160.014ZM145.099 101.728C147.363 99.4631 150.851 100.821 150.851 103.946C150.851 105.848 149.537 106.89 147.182 106.89C145.325 106.89 144.646 106.301 144.238 104.264C144.012 103.132 144.193 102.633 145.099 101.728Z" fill="#F3F3F3"/>
</svg>
