<?xml version="1.0" standalone="no"?>
<!DOCTYPE svg PUBLIC "-//W3C//DTD SVG 20010904//EN"
 "http://www.w3.org/TR/2001/REC-SVG-20010904/DTD/svg10.dtd">
<svg version="1.0" xmlns="http://www.w3.org/2000/svg"
 width="64.000000pt" height="64.000000pt" viewBox="0 0 64.000000 64.000000"
 preserveAspectRatio="xMidYMid meet">

<g transform="translate(0.000000,64.000000) scale(0.100000,-0.100000)"
fill="#000000" stroke="none">
<path d="M191 570 c-68 -38 -130 -75 -137 -81 -11 -9 -14 -48 -14 -169 0 -137
2 -159 18 -172 28 -24 248 -148 262 -148 15 0 234 124 263 148 15 13 17 35 17
172 0 114 -3 160 -12 168 -21 16 -237 140 -256 146 -11 4 -65 -21 -141 -64z
m216 -81 c43 -21 80 -61 70 -76 -12 -18 -79 -47 -85 -36 -20 30 -74 41 -116
22 -51 -24 -59 -121 -13 -154 30 -21 89 -19 120 5 l25 20 36 -21 c20 -11 36
-24 36 -28 0 -12 -54 -58 -89 -76 -52 -26 -131 -17 -178 21 -66 53 -78 78 -78
153 0 56 4 74 27 108 51 77 158 104 245 62z m89 -154 c14 -13 14 -17 0 -31
-15 -14 -17 -14 -32 0 -12 13 -13 18 -2 30 16 19 16 19 34 1z m80 0 c14 -13
14 -17 0 -31 -15 -14 -17 -14 -32 0 -12 13 -13 18 -2 30 16 19 16 19 34 1z"/>
</g>
</svg>
