<svg width="64" height="65" viewBox="0 0 64 65" fill="none" xmlns="http://www.w3.org/2000/svg">
<path d="M53.3662 30.7539C53.3864 30.7758 53.1885 31.2639 52.9395 31.8242C52.6799 32.3953 52.4728 32.9146 52.4727 32.998C52.4727 33.0708 52.6591 33.4453 52.8877 33.8193C53.5213 34.8788 53.6884 35.4293 54.3428 38.7324C54.6856 40.4258 55.2046 42.9193 55.5059 44.2803L56.0459 46.7529L55.6719 47.1064C54.685 48.0099 53.6259 47.6873 53.1377 46.3369C52.5352 44.6645 51.849 43.8542 50 42.5869C47.538 40.9248 46.8731 39.8237 46.9873 37.6318C47.0185 37.0916 47.0178 36.6553 46.9971 36.6553C46.9747 36.656 46.8089 36.7182 46.623 36.8008C45.5529 37.2586 43.5383 40.406 43.0293 42.4004C42.3645 44.9766 42.4887 46.5662 43.5898 49.9736C44.4209 52.498 44.5972 53.9525 44.3271 55.7705C44.2337 56.3626 44.1301 56.8823 44.0781 56.9238C43.9629 57.038 43.011 57.1312 42.3984 56.9238C42.0556 56.8199 40.9431 56.8511 40.9639 56.9238C41.0473 57.1733 41.9795 57.9833 42.8623 58.4092C43.3989 58.672 42.7021 60.8271 42.1475 62.8555C38.9587 63.9209 35.5471 64.5 32 64.5C23.3694 64.5 15.538 61.082 9.78223 55.5273C9.53513 52.8845 10.3933 50.5839 12.2881 48.8613C13.0879 48.1342 14.5218 47.4077 15.5918 47.1895C16.7138 46.9505 19.2803 47.0544 21.4619 47.418C25.1603 48.0309 27.8299 47.6979 29.835 46.3682C30.8219 45.7137 32.4951 44.0516 33.4404 42.7842C33.8456 42.2438 34.6975 40.9354 35.3311 39.876C36.7439 37.5281 37.627 36.354 38.832 35.1904C40.8994 33.1958 42.9979 32.1045 45.7197 31.6162C46.3846 31.4916 47.4342 31.4296 48.9404 31.3984C51.6619 31.3569 51.8802 31.3256 52.6904 30.9932C53.0436 30.8373 53.3454 30.7331 53.3662 30.7539ZM32 0.5C49.6731 0.5 64 14.8269 64 32.5C64 45.2942 56.4905 56.3324 45.6396 61.4531C45.8511 59.4733 46.1277 57.4879 46.1045 57.4434C46.0629 57.4018 46.1041 56.923 46.208 56.3828C46.4157 55.2191 46.436 53.0067 46.249 52.0303C46.1762 51.6665 45.8653 50.5446 45.5537 49.5371C44.5045 46.1504 44.421 44.7167 45.1689 42.4209C45.5844 41.1329 45.5847 41.1325 45.917 41.6621C46.5092 42.5867 47.2989 43.3041 48.7949 44.291C50.4465 45.3817 50.6652 45.6205 51.0703 46.8359C51.4235 47.8851 51.6208 48.1757 52.3584 48.7471C53.5012 49.6301 54.1967 49.8068 55.3291 49.4951C56.129 49.2873 56.6385 48.9861 57.1787 48.4043C57.7083 47.8435 57.9785 47.3243 57.9785 46.8984C57.9785 46.7634 57.6561 45.018 57.251 43.0234C56.8562 41.0394 56.368 38.5152 56.1602 37.4346C55.7654 35.3568 55.3188 33.4548 54.9863 32.499L54.7891 31.9277L55.0801 31.1904C55.3813 30.432 55.6924 28.9359 55.6924 28.2295C55.6923 27.7105 55.5269 27.3053 55.3193 27.3047C55.2154 27.3047 54.4874 27.7306 53.6875 28.25C52.888 28.7692 52.0784 29.2475 51.8701 29.2998C51.6312 29.3725 51.1841 29.3618 50.54 29.2891C48.1403 29.0086 45.4704 29.3309 42.9668 30.2139C40.754 31.0034 38.5721 32.4477 36.8164 34.2969C35.5698 35.6058 34.6556 36.9356 33.2324 39.46C31.7261 42.1298 30.2095 43.9794 28.7344 44.9248C27.9345 45.4338 26.5215 45.8803 25.4619 45.9531C24.5789 46.0155 24.4747 45.9113 25.2539 45.7451C25.4515 45.7035 26.023 45.4954 26.5215 45.2773C29.1289 44.1553 31.5494 41.7558 32.8271 39.0342C33.6167 37.3513 33.9494 36.0942 34.2402 33.7881C34.5622 31.1912 34.9359 29.8402 35.6006 28.791C36.5252 27.3366 37.6375 26.7861 39.6426 26.7861L40.4873 26.9941L40.2578 26.3066C39.9981 25.569 39.7252 25.2796 38.9668 25.1445L38.5205 25.0713L38.375 24.3447C38.3023 23.9396 38.042 23.2331 37.8135 22.7656C37.4915 22.0905 37.2634 21.7886 36.7441 21.3213C35.7989 20.4903 35.4556 20.2823 34.5312 19.9707C32.4639 19.2643 30.3238 19.628 28.7031 20.9473C27.6539 21.7991 27.1759 22.5055 26.293 24.4688C25.119 27.0971 24.1523 28.8633 23.8926 28.8633C23.8498 28.8614 23.4455 28.353 22.9893 27.7412C22.5218 27.1283 21.8464 26.3386 21.4932 25.9854C20.2154 24.7699 19.2487 24.2926 15.54 23.0771C11.2495 21.6643 9.97158 20.9368 8.36133 18.9941C7.9876 18.5374 7.61408 18.1636 7.54102 18.1631C7.45791 18.1631 7.28119 18.3607 7.13574 18.5996C6.3359 19.9708 6.04502 20.9268 5.96191 22.4746C5.84771 24.8015 6.51259 27.0452 7.99805 29.2891C9.46284 31.5018 11.2079 32.718 14.6465 33.9023C16.4541 34.5257 17.3378 35.0028 18.1689 35.8027C18.4079 36.0417 18.6045 36.2186 18.6045 36.1875C18.6045 35.9382 17.961 34.5782 17.7012 34.2764C17.2752 33.7777 16.1636 33.0082 14.6572 32.1875C14.0027 31.8239 13.1405 31.315 12.7354 31.0449C10.4498 29.497 8.76661 27.2012 8.16406 24.791C7.89396 23.7002 7.72752 22.1 7.8418 21.6533L7.91504 21.373L8.45508 21.8301C9.87834 23.0456 11.1254 23.659 14.5537 24.8018C18.1271 26.0067 19.3324 26.6609 20.8906 28.2295C23.0826 30.4422 24.2669 33.0914 24.3916 36.0625C24.4643 37.5896 24.5472 37.6418 25.0146 36.3848C25.3782 35.3979 25.4617 33.7257 25.2021 32.3545L25.0146 31.3877L25.5137 30.6191C26.1993 29.5699 26.9995 28.0119 27.6436 26.5264C28.9214 23.576 29.6381 22.5163 30.7705 21.9033C31.4041 21.5606 31.487 21.5394 32.4219 21.5498C33.1906 21.5498 33.5442 21.6021 34.0117 21.7891C34.9257 22.1527 35.5804 22.7241 35.9336 23.4824C36.2036 24.0538 36.4736 24.9883 36.4736 25.3623C36.4736 25.435 36.2035 25.6222 35.8711 25.7988C34.9049 26.2975 33.9907 27.2847 33.4297 28.4482C32.8272 29.6844 32.5153 30.9003 32.1621 33.3311C31.7985 35.8656 31.5075 36.9668 30.8115 38.4004C30.1051 39.8651 29.5649 40.6343 28.5156 41.6523C27.5185 42.5975 26.6768 43.1788 25.4199 43.7812C23.7162 44.5812 22.7812 44.7373 18.252 44.9658C17.1092 45.0178 16.1536 45.0487 16.1328 45.0176C16.0081 44.9033 16.3509 44.1138 16.7041 43.6982C17.4312 42.8257 18.1585 41.787 18.8545 40.6133C19.2271 39.9716 19.5271 39.4226 19.5088 39.3877C19.488 39.3669 18.9376 39.2621 18.2832 39.1582C15.1147 38.6388 12.1328 37.5068 10.4395 36.1875C9.55641 35.4915 9.55608 35.4919 9.71191 35.8555C10.2315 37.1229 12.0083 39.0236 13.2549 39.6885C14.2002 40.1871 15.4778 40.6126 16.0596 40.623C16.3185 40.623 16.5261 40.6545 16.5273 40.6855C16.5273 40.7167 16.4231 40.8624 16.2881 41.0078C16.153 41.1637 15.6647 41.7971 15.1973 42.4307C14.3246 43.615 13.8887 44.4259 13.7744 45.0908C13.7121 45.4127 13.6183 45.5167 13.0889 45.8281C12.5487 46.1502 12.4336 46.1817 12.0908 46.0986C11.3843 45.9429 9.85701 45.9944 9.01562 46.2021C8.00822 46.4618 7.58226 46.6803 6.19043 47.667C5.53764 48.1248 4.97098 48.4989 4.46191 48.8047C1.62851 44.0295 1.52993e-05 38.4552 0 32.5C0 14.8269 14.3269 0.5 32 0.5ZM52.2646 37.2061C51.7764 37.258 51.3707 37.3099 51.3604 37.3203C51.3511 37.3346 51.3828 37.5097 51.4443 37.7148C51.5171 38.0055 51.6828 38.2031 52.1396 38.5146C52.7523 38.9612 52.9709 39.0133 53.3135 38.8369C53.4797 38.7434 53.4482 38.8264 53.4482 38.1201C53.4482 37.3929 53.2593 37.3099 53.1035 37.3203C52.9994 37.3302 52.7522 37.1438 52.2646 37.2061ZM34.6035 24.3447C34.6035 23.6279 33.8036 23.3156 33.2842 23.835C33.0764 24.0427 33.035 24.1573 33.0869 24.417C33.1804 24.8843 33.3361 25.0194 33.7617 25.0195C34.3018 25.0195 34.6033 24.7808 34.6035 24.3447Z" fill="#3D3D3D"/>
</svg>
